<svg width="118" height="24" viewBox="0 0 118 24" fill="none" xmlns="http://www.w3.org/2000/svg">
<path d="M7.768 11.896C8.51467 11.832 9.24 11.704 9.944 11.512C10.648 11.32 11.2133 10.9467 11.64 10.392C11.9173 10.0293 12.1413 9.624 12.312 9.176C12.504 8.728 12.6 8.25867 12.6 7.768C12.6 7.576 12.5787 7.40533 12.536 7.256C12.5147 7.10667 12.4827 6.95733 12.44 6.808C12.2693 6.33867 12.0027 5.98667 11.64 5.752C11.2773 5.51733 10.872 5.35733 10.424 5.272C9.99733 5.16533 9.53867 5.12267 9.048 5.144C8.57867 5.144 8.14133 5.15467 7.736 5.176C7.77867 5.47467 7.78933 6.008 7.768 6.776C7.74667 7.544 7.736 8.376 7.736 9.272V10.904C7.736 11.1387 7.74667 11.3733 7.768 11.608V11.896ZM6.424 0.695999C6.744 0.695999 7.16 0.706666 7.672 0.727999C8.20533 0.727999 8.78133 0.759999 9.4 0.823999C10.04 0.887999 10.7013 0.994665 11.384 1.144C12.0667 1.29333 12.7173 1.51733 13.336 1.816C13.9547 2.09333 14.5093 2.44533 15 2.872C15.512 3.29867 15.9067 3.832 16.184 4.472C16.4187 5.02667 16.5787 5.624 16.664 6.264C16.7707 6.88267 16.824 7.512 16.824 8.152C16.824 9.00533 16.7173 9.83733 16.504 10.648C16.312 11.4587 16.0027 12.1733 15.576 12.792C15.064 13.56 14.4453 14.104 13.72 14.424C13.016 14.744 12.2587 15.0213 11.448 15.256C10.7653 15.4053 10.0827 15.544 9.4 15.672C8.71733 15.8 8.06667 15.9067 7.448 15.992L7.544 18.776C7.84267 18.7333 8.152 18.7227 8.472 18.744C8.81333 18.7653 9.15467 18.7653 9.496 18.744C9.496 19.4267 9.50667 20.12 9.528 20.824C9.57067 21.5067 9.60267 22.1893 9.624 22.872L0.664 22.904L0.856 18.808C1.21867 18.7013 1.53867 18.648 1.816 18.648C2.09333 18.648 2.43467 18.6267 2.84 18.584C2.84 18.3067 2.84 17.9867 2.84 17.624C2.84 17.2613 2.84 16.7493 2.84 16.088C2.84 15.4267 2.82933 14.5733 2.808 13.528C2.808 12.4827 2.808 11.128 2.808 9.464C2.808 8.84533 2.808 8.16267 2.808 7.416C2.82933 6.648 2.85067 5.92267 2.872 5.24H0.44L0.472 0.823999C1.112 0.823999 1.69867 0.823999 2.232 0.823999C2.78667 0.802666 3.352 0.781333 3.928 0.759998C4.33333 0.738665 4.73867 0.727999 5.144 0.727999C5.57067 0.706666 5.99733 0.695999 6.424 0.695999ZM26.5052 19.224C26.6119 19.224 26.6653 19.2667 26.6653 19.352L27.0493 22.488C27.0493 22.616 26.9959 22.68 26.8893 22.68L19.3693 22.904C19.3266 22.904 19.2946 22.84 19.2733 22.712C19.2733 22.584 19.2626 22.4347 19.2413 22.264C19.2413 22.072 19.2413 21.88 19.2413 21.688C19.2626 21.496 19.2733 21.336 19.2733 21.208V19.544C19.2733 19.4373 19.3266 19.384 19.4333 19.384L21.0013 19.288V12.6C20.7666 12.6 20.4999 12.5893 20.2013 12.568C19.9026 12.5467 19.6573 12.5253 19.4653 12.504C19.3586 12.504 19.3053 12.4507 19.3053 12.344C19.1986 11.192 19.1346 10.0293 19.1133 8.856C19.1133 8.74933 19.1559 8.696 19.2413 8.696C20.2653 8.58933 21.2679 8.52533 22.2493 8.504C23.2306 8.46133 24.2333 8.41867 25.2573 8.376C25.3639 8.376 25.4173 8.42933 25.4173 8.536C25.3959 8.83467 25.3853 9.144 25.3853 9.464C25.3853 9.784 25.3853 10.0933 25.3853 10.392C25.3853 11.1387 25.3959 11.8853 25.4173 12.632C25.4386 13.3787 25.4599 14.1253 25.4813 14.872C25.5026 15.6187 25.5133 16.344 25.5133 17.048C25.5346 17.752 25.5453 18.4773 25.5453 19.224H26.5052ZM23.3693 1.08C23.4759 1.10133 23.5613 1.112 23.6253 1.112C23.7106 1.112 23.7959 1.13333 23.8813 1.176C24.6066 1.41067 25.1293 1.784 25.4493 2.296C25.7906 2.78667 25.9613 3.33067 25.9613 3.928C25.9613 4.376 25.8653 4.81333 25.6733 5.24C25.5026 5.66667 25.2466 6.04 24.9053 6.36C24.5853 6.68 24.1906 6.92533 23.7213 7.096C23.2519 7.24533 22.7399 7.27733 22.1853 7.192C21.7799 7.14933 21.4066 7 21.0653 6.744C20.7239 6.488 20.4466 6.17867 20.2333 5.816C19.9986 5.45333 19.8493 5.05867 19.7853 4.632C19.7426 4.20533 19.7746 3.81067 19.8813 3.448C20.0733 2.744 20.4893 2.15733 21.1293 1.688C21.7693 1.21867 22.5159 1.016 23.3693 1.08ZM35.6168 18.712H36.4808C36.6301 18.712 36.7368 18.7227 36.8008 18.744C36.8648 18.744 36.9608 18.744 37.0888 18.744C37.0674 18.5947 37.0568 18.4453 37.0568 18.296C37.0781 18.1467 37.0994 18.0187 37.1208 17.912C37.1208 17.8267 37.1741 17.784 37.2808 17.784C37.9208 17.8053 38.5714 17.816 39.2328 17.816C39.8941 17.816 40.5448 17.816 41.1848 17.816C41.2914 17.816 41.3448 17.8693 41.3448 17.976C41.3021 18.4667 41.2808 18.9467 41.2808 19.416C41.2808 19.8853 41.2701 20.3653 41.2488 20.856C41.2488 21.1333 41.2381 21.4747 41.2168 21.88C41.2168 22.264 41.2061 22.584 41.1848 22.84C41.1848 22.9467 41.1314 23 41.0248 23C38.7208 23.064 36.3954 23.096 34.0488 23.096C33.2168 23.096 32.3741 23.0853 31.5208 23.064C30.6674 23.064 29.8248 23.0427 28.9928 23C28.8861 23 28.8328 22.9467 28.8328 22.84V18.904C28.8328 18.8613 28.8541 18.8187 28.8968 18.776L31.9688 16.024C32.7581 15.32 33.4621 14.68 34.0808 14.104C34.7208 13.5067 35.4034 12.9093 36.1288 12.312C35.6594 12.312 35.1474 12.312 34.5928 12.312C34.0594 12.2907 33.5581 12.28 33.0888 12.28C33.1101 12.3867 33.1208 12.504 33.1208 12.632C33.1208 12.76 33.1208 12.8773 33.1208 12.984C33.0994 13.1547 33.0888 13.304 33.0888 13.432C33.0888 13.56 33.0888 13.6453 33.0888 13.688C33.0888 13.7947 33.0354 13.848 32.9288 13.848L29.3768 13.944C29.2701 13.944 29.2168 13.9013 29.2168 13.816C29.1954 13.7093 29.1741 13.432 29.1528 12.984C29.1528 12.536 29.1528 12.0133 29.1528 11.416V9.208C29.1528 8.84533 29.1634 8.49333 29.1848 8.152C29.1848 8.04533 29.2381 7.992 29.3448 7.992H41.4408C41.5261 7.992 41.5688 8.04533 41.5688 8.152C41.5474 8.408 41.5368 8.664 41.5368 8.92C41.5368 9.176 41.5368 9.42133 41.5368 9.656C41.5368 9.976 41.5368 10.296 41.5368 10.616C41.5368 10.9147 41.5474 11.2347 41.5688 11.576C41.5688 11.7893 41.5688 12.0027 41.5688 12.216C41.5901 12.4293 41.6008 12.664 41.6008 12.92C41.6008 12.9627 41.5794 13.0053 41.5368 13.048L35.6168 18.712ZM50.398 18.712H51.262C51.4113 18.712 51.518 18.7227 51.582 18.744C51.646 18.744 51.742 18.744 51.87 18.744C51.8487 18.5947 51.838 18.4453 51.838 18.296C51.8593 18.1467 51.8807 18.0187 51.902 17.912C51.902 17.8267 51.9553 17.784 52.062 17.784C52.702 17.8053 53.3527 17.816 54.014 17.816C54.6753 17.816 55.326 17.816 55.966 17.816C56.0727 17.816 56.126 17.8693 56.126 17.976C56.0833 18.4667 56.062 18.9467 56.062 19.416C56.062 19.8853 56.0513 20.3653 56.03 20.856C56.03 21.1333 56.0193 21.4747 55.998 21.88C55.998 22.264 55.9873 22.584 55.966 22.84C55.966 22.9467 55.9127 23 55.806 23C53.502 23.064 51.1767 23.096 48.83 23.096C47.998 23.096 47.1553 23.0853 46.302 23.064C45.4487 23.064 44.606 23.0427 43.774 23C43.6673 23 43.614 22.9467 43.614 22.84V18.904C43.614 18.8613 43.6353 18.8187 43.678 18.776L46.75 16.024C47.5393 15.32 48.2433 14.68 48.862 14.104C49.502 13.5067 50.1847 12.9093 50.91 12.312C50.4407 12.312 49.9287 12.312 49.374 12.312C48.8407 12.2907 48.3393 12.28 47.87 12.28C47.8913 12.3867 47.902 12.504 47.902 12.632C47.902 12.76 47.902 12.8773 47.902 12.984C47.8807 13.1547 47.87 13.304 47.87 13.432C47.87 13.56 47.87 13.6453 47.87 13.688C47.87 13.7947 47.8167 13.848 47.71 13.848L44.158 13.944C44.0513 13.944 43.998 13.9013 43.998 13.816C43.9767 13.7093 43.9553 13.432 43.934 12.984C43.934 12.536 43.934 12.0133 43.934 11.416V9.208C43.934 8.84533 43.9447 8.49333 43.966 8.152C43.966 8.04533 44.0193 7.992 44.126 7.992H56.222C56.3073 7.992 56.35 8.04533 56.35 8.152C56.3287 8.408 56.318 8.664 56.318 8.92C56.318 9.176 56.318 9.42133 56.318 9.656C56.318 9.976 56.318 10.296 56.318 10.616C56.318 10.9147 56.3287 11.2347 56.35 11.576C56.35 11.7893 56.35 12.0027 56.35 12.216C56.3713 12.4293 56.382 12.664 56.382 12.92C56.382 12.9627 56.3607 13.0053 56.318 13.048L50.398 18.712ZM62.5873 16.92C62.2246 17.4107 62.0539 17.816 62.0753 18.136C62.1179 18.456 62.2459 18.7013 62.4593 18.872C62.6726 19.0427 62.9179 19.16 63.1953 19.224C63.4939 19.2667 63.7393 19.2773 63.9313 19.256C64.1873 19.2133 64.4326 19.1387 64.6673 19.032C64.9233 18.9253 65.1366 18.8187 65.3073 18.712C65.4353 18.584 65.5419 18.4347 65.6273 18.264C65.7339 18.0933 65.7979 17.9227 65.8193 17.752C65.8406 17.2613 65.6806 16.9093 65.3393 16.696C64.9979 16.4613 64.6139 16.344 64.1873 16.344C63.9526 16.344 63.7179 16.3547 63.4833 16.376C63.2699 16.3973 63.0779 16.4827 62.9073 16.632C62.8646 16.6747 62.8113 16.728 62.7473 16.792C62.6833 16.8347 62.6299 16.8773 62.5873 16.92ZM71.4513 19.448C71.5579 19.4267 71.6753 19.4267 71.8033 19.448C71.9313 19.448 72.0486 19.4587 72.1553 19.48H72.7313C72.8379 19.48 72.8913 19.5333 72.8913 19.64V22.456C72.7846 22.52 72.4646 22.584 71.9313 22.648C71.4193 22.712 70.8646 22.7653 70.2673 22.808C69.6913 22.8293 69.1473 22.8507 68.6353 22.872C68.1233 22.8933 67.8353 22.904 67.7713 22.904C67.6646 22.904 67.6113 22.8613 67.6113 22.776C67.5899 22.6267 67.5686 22.4773 67.5473 22.328C67.5473 22.1787 67.5579 22.0187 67.5793 21.848C67.2379 22.2107 66.8113 22.488 66.2993 22.68C65.7873 22.872 65.2859 23.0213 64.7953 23.128C64.5179 23.1707 64.2406 23.2027 63.9633 23.224C63.6859 23.2667 63.3979 23.288 63.0993 23.288C62.6513 23.288 62.2459 23.2453 61.8833 23.16C60.6886 22.8613 59.8139 22.264 59.2593 21.368C58.7046 20.4507 58.4273 19.448 58.4273 18.36C58.4273 17.8267 58.5019 17.2933 58.6513 16.76C58.8219 16.2053 59.0566 15.6933 59.3553 15.224C59.6539 14.7547 60.0273 14.3387 60.4753 13.976C60.9233 13.6133 61.4246 13.3467 61.9793 13.176C62.6193 13.0053 63.2806 12.92 63.9633 12.92C64.5819 12.92 65.1686 12.984 65.7233 13.112C66.2779 13.24 66.7899 13.464 67.2593 13.784C67.1953 13.4213 67.0566 13.112 66.8433 12.856C66.6513 12.6 66.3953 12.3973 66.0753 12.248C65.7766 12.0773 65.4353 11.96 65.0513 11.896C64.6886 11.8107 64.3153 11.768 63.9313 11.768C63.4406 11.768 62.9713 11.832 62.5233 11.96C62.0753 12.088 61.7019 12.2693 61.4033 12.504C61.2753 12.5893 61.1899 12.568 61.1473 12.44C60.9766 11.8853 60.8059 11.3093 60.6353 10.712L60.1233 8.984C60.1233 8.89867 60.1446 8.84533 60.1873 8.824C60.5286 8.632 60.8806 8.472 61.2433 8.344C61.7766 8.17333 62.3419 8.03467 62.9393 7.928C63.5366 7.82133 64.1339 7.768 64.7313 7.768C65.5419 7.768 66.3313 7.88533 67.0993 8.12C67.8673 8.35467 68.5606 8.74933 69.1793 9.304C69.6273 9.70933 70.0113 10.1893 70.3313 10.744C70.6086 11.192 70.8326 11.672 71.0033 12.184C71.1739 12.696 71.3126 13.1973 71.4193 13.688C71.4619 14.1147 71.4939 14.5307 71.5153 14.936C71.5579 15.32 71.5793 15.7253 71.5793 16.152C71.5793 16.472 71.5686 16.8133 71.5473 17.176C71.5473 17.5387 71.5259 17.8693 71.4833 18.168L71.4513 19.448Z" fill="#E53935"/>
<path d="M82.7055 11.896C83.4522 11.832 84.1775 11.704 84.8815 11.512C85.5855 11.32 86.1508 10.9467 86.5775 10.392C86.8548 10.0293 87.0788 9.624 87.2495 9.176C87.4415 8.728 87.5375 8.25867 87.5375 7.768C87.5375 7.576 87.5162 7.40533 87.4735 7.256C87.4522 7.10667 87.4202 6.95733 87.3775 6.808C87.2068 6.33867 86.9402 5.98667 86.5775 5.752C86.2148 5.51733 85.8095 5.35733 85.3615 5.272C84.9348 5.16533 84.4762 5.12267 83.9855 5.144C83.5162 5.144 83.0788 5.15467 82.6735 5.176C82.7162 5.47467 82.7268 6.008 82.7055 6.776C82.6842 7.544 82.6735 8.376 82.6735 9.272V10.904C82.6735 11.1387 82.6842 11.3733 82.7055 11.608V11.896ZM81.3615 0.695999C81.6815 0.695999 82.0975 0.706666 82.6095 0.727999C83.1428 0.727999 83.7188 0.759999 84.3375 0.823999C84.9775 0.887999 85.6388 0.994665 86.3215 1.144C87.0042 1.29333 87.6548 1.51733 88.2735 1.816C88.8922 2.09333 89.4468 2.44533 89.9375 2.872C90.4495 3.29867 90.8442 3.832 91.1215 4.472C91.3562 5.02667 91.5162 5.624 91.6015 6.264C91.7082 6.88267 91.7615 7.512 91.7615 8.152C91.7615 9.00533 91.6548 9.83733 91.4415 10.648C91.2495 11.4587 90.9402 12.1733 90.5135 12.792C90.0015 13.56 89.3828 14.104 88.6575 14.424C87.9535 14.744 87.1962 15.0213 86.3855 15.256C85.7028 15.4053 85.0202 15.544 84.3375 15.672C83.6548 15.8 83.0042 15.9067 82.3855 15.992L82.4815 18.776C82.7802 18.7333 83.0895 18.7227 83.4095 18.744C83.7508 18.7653 84.0922 18.7653 84.4335 18.744C84.4335 19.4267 84.4442 20.12 84.4655 20.824C84.5082 21.5067 84.5402 22.1893 84.5615 22.872L75.6015 22.904L75.7935 18.808C76.1562 18.7013 76.4762 18.648 76.7535 18.648C77.0308 18.648 77.3722 18.6267 77.7775 18.584C77.7775 18.3067 77.7775 17.9867 77.7775 17.624C77.7775 17.2613 77.7775 16.7493 77.7775 16.088C77.7775 15.4267 77.7668 14.5733 77.7455 13.528C77.7455 12.4827 77.7455 11.128 77.7455 9.464C77.7455 8.84533 77.7455 8.16267 77.7455 7.416C77.7668 6.648 77.7882 5.92267 77.8095 5.24H75.3775L75.4095 0.823999C76.0495 0.823999 76.6362 0.823999 77.1695 0.823999C77.7242 0.802666 78.2895 0.781333 78.8655 0.759998C79.2708 0.738665 79.6762 0.727999 80.0815 0.727999C80.5082 0.706666 80.9348 0.695999 81.3615 0.695999ZM96.306 16.92C95.9433 17.4107 95.7727 17.816 95.794 18.136C95.8367 18.456 95.9647 18.7013 96.178 18.872C96.3913 19.0427 96.6367 19.16 96.914 19.224C97.2127 19.2667 97.458 19.2773 97.65 19.256C97.906 19.2133 98.1513 19.1387 98.386 19.032C98.642 18.9253 98.8553 18.8187 99.026 18.712C99.154 18.584 99.2607 18.4347 99.346 18.264C99.4527 18.0933 99.5167 17.9227 99.538 17.752C99.5593 17.2613 99.3993 16.9093 99.058 16.696C98.7167 16.4613 98.3327 16.344 97.906 16.344C97.6713 16.344 97.4367 16.3547 97.202 16.376C96.9887 16.3973 96.7967 16.4827 96.626 16.632C96.5833 16.6747 96.53 16.728 96.466 16.792C96.402 16.8347 96.3487 16.8773 96.306 16.92ZM105.17 19.448C105.277 19.4267 105.394 19.4267 105.522 19.448C105.65 19.448 105.767 19.4587 105.874 19.48H106.45C106.557 19.48 106.61 19.5333 106.61 19.64V22.456C106.503 22.52 106.183 22.584 105.65 22.648C105.138 22.712 104.583 22.7653 103.986 22.808C103.41 22.8293 102.866 22.8507 102.354 22.872C101.842 22.8933 101.554 22.904 101.49 22.904C101.383 22.904 101.33 22.8613 101.33 22.776C101.309 22.6267 101.287 22.4773 101.266 22.328C101.266 22.1787 101.277 22.0187 101.298 21.848C100.957 22.2107 100.53 22.488 100.018 22.68C99.506 22.872 99.0047 23.0213 98.514 23.128C98.2367 23.1707 97.9593 23.2027 97.682 23.224C97.4047 23.2667 97.1167 23.288 96.818 23.288C96.37 23.288 95.9647 23.2453 95.602 23.16C94.4073 22.8613 93.5327 22.264 92.978 21.368C92.4233 20.4507 92.146 19.448 92.146 18.36C92.146 17.8267 92.2207 17.2933 92.37 16.76C92.5407 16.2053 92.7753 15.6933 93.074 15.224C93.3727 14.7547 93.746 14.3387 94.194 13.976C94.642 13.6133 95.1433 13.3467 95.698 13.176C96.338 13.0053 96.9993 12.92 97.682 12.92C98.3007 12.92 98.8873 12.984 99.442 13.112C99.9967 13.24 100.509 13.464 100.978 13.784C100.914 13.4213 100.775 13.112 100.562 12.856C100.37 12.6 100.114 12.3973 99.794 12.248C99.4953 12.0773 99.154 11.96 98.77 11.896C98.4073 11.8107 98.034 11.768 97.65 11.768C97.1593 11.768 96.69 11.832 96.242 11.96C95.794 12.088 95.4207 12.2693 95.122 12.504C94.994 12.5893 94.9087 12.568 94.866 12.44C94.6953 11.8853 94.5247 11.3093 94.354 10.712L93.842 8.984C93.842 8.89867 93.8633 8.84533 93.906 8.824C94.2473 8.632 94.5993 8.472 94.962 8.344C95.4953 8.17333 96.0607 8.03467 96.658 7.928C97.2553 7.82133 97.8527 7.768 98.45 7.768C99.2607 7.768 100.05 7.88533 100.818 8.12C101.586 8.35467 102.279 8.74933 102.898 9.304C103.346 9.70933 103.73 10.1893 104.05 10.744C104.327 11.192 104.551 11.672 104.722 12.184C104.893 12.696 105.031 13.1973 105.138 13.688C105.181 14.1147 105.213 14.5307 105.234 14.936C105.277 15.32 105.298 15.7253 105.298 16.152C105.298 16.472 105.287 16.8133 105.266 17.176C105.266 17.5387 105.245 17.8693 105.202 18.168L105.17 19.448ZM115.496 1.24C115.475 1.92267 115.464 2.62667 115.464 3.352C115.464 4.056 115.464 4.74933 115.464 5.432C115.464 6.56267 115.464 7.69333 115.464 8.824C115.486 9.93333 115.507 11.0533 115.528 12.184C115.55 13.336 115.56 14.4667 115.56 15.576C115.582 16.6853 115.592 17.816 115.592 18.968C115.827 18.9467 116.072 18.936 116.328 18.936C116.584 18.936 116.83 18.9573 117.064 19C117.128 19 117.16 19.0533 117.16 19.16L117.352 22.904C117.352 22.968 117.31 23.0213 117.224 23.064C117.203 23.064 116.947 23.064 116.456 23.064C115.966 23.0853 115.368 23.096 114.664 23.096C113.982 23.096 113.246 23.096 112.456 23.096C111.688 23.096 111.006 23.096 110.408 23.096H108.68C108.574 23.096 108.52 23.0427 108.52 22.936C108.52 22.68 108.52 22.4347 108.52 22.2C108.52 21.944 108.531 21.688 108.552 21.432C108.552 21.304 108.552 21.144 108.552 20.952C108.574 20.76 108.584 20.6107 108.584 20.504C108.584 20.2693 108.574 20.0453 108.552 19.832C108.552 19.6187 108.542 19.4053 108.52 19.192C108.52 19.0853 108.574 19.032 108.68 19.032C108.723 19.032 108.776 19.032 108.84 19.032C108.904 19.0107 108.958 19 109 19C109.128 18.9787 109.299 18.968 109.512 18.968C109.747 18.968 109.918 18.968 110.024 18.968L110.6 5.24L108.872 5.336C108.766 5.336 108.712 5.28267 108.712 5.176L108.808 2.712C108.83 2.52 108.84 2.328 108.84 2.136C108.84 1.92267 108.84 1.70933 108.84 1.496C108.84 1.38933 108.894 1.336 109 1.336C110.067 1.22933 111.123 1.16533 112.168 1.144C113.214 1.12267 114.28 1.09067 115.368 1.048C115.518 1.048 115.56 1.112 115.496 1.24Z" fill="#333333"/>
</svg>
